<svg xmlns="http://www.w3.org/2000/svg" width="47.262" height="37.81" viewBox="0 0 47.262 37.81">
  <path id="Icon_awesome-eye-slash" data-name="Icon awesome-eye-slash" d="M23.631,29.539a10.594,10.594,0,0,1-10.553-9.83L5.332,13.722A24.612,24.612,0,0,0,2.62,17.827a2.389,2.389,0,0,0,0,2.156,23.685,23.685,0,0,0,21.011,13.1,22.938,22.938,0,0,0,5.752-.772l-3.832-2.965a10.644,10.644,0,0,1-1.92.193Zm23.174,4.29L38.642,27.52a24.462,24.462,0,0,0,6-7.537,2.389,2.389,0,0,0,0-2.156,23.685,23.685,0,0,0-21.011-13.1A22.756,22.756,0,0,0,12.752,7.51L3.357.249A1.182,1.182,0,0,0,1.7.456L.249,2.322A1.182,1.182,0,0,0,.456,3.98L43.9,37.56a1.182,1.182,0,0,0,1.659-.208l1.45-1.866a1.182,1.182,0,0,0-.208-1.658ZM33.238,23.343l-2.9-2.243a7,7,0,0,0-8.574-9,3.519,3.519,0,0,1,.688,2.083,3.444,3.444,0,0,1-.114.738l-5.436-4.2a10.509,10.509,0,0,1,6.731-2.445A10.628,10.628,0,0,1,34.265,18.9a10.382,10.382,0,0,1-1.026,4.439Z" transform="translate(0 0)" fill="#4c4c4c"/>
</svg>
