<svg xmlns="http://www.w3.org/2000/svg" width="23.091" height="15.424" viewBox="0 0 23.091 15.424">
  <path id="Icon_payment-cash" data-name="Icon payment-cash" d="M29.541,17.116V31.007a.99.99,0,0,1-.226.541.737.737,0,0,1-.541.226H7.216a.735.735,0,0,1-.541-.226.986.986,0,0,1-.226-.541V17.116a.988.988,0,0,1,.226-.541.738.738,0,0,1,.541-.226H28.774a.74.74,0,0,1,.541.226.993.993,0,0,1,.226.541ZM28.007,27.129V20.995a2.95,2.95,0,0,1-2.165-.9,3,3,0,0,1-.9-2.21H11.049a3,3,0,0,1-.9,2.21,2.952,2.952,0,0,1-2.165.9v6.134a2.955,2.955,0,0,1,2.165.9,3.007,3.007,0,0,1,.9,2.21H24.94a3,3,0,0,1,.9-2.21,2.954,2.954,0,0,1,2.165-.9Zm-6.179-3.067a7.9,7.9,0,0,1-.226,1.714,5.78,5.78,0,0,1-.722,1.624,3.92,3.92,0,0,1-1.218,1.218,3.312,3.312,0,0,1-3.337,0A3.907,3.907,0,0,1,15.109,27.4a5.765,5.765,0,0,1-.722-1.624,7.866,7.866,0,0,1-.226-1.714,7.873,7.873,0,0,1,.226-1.714,5.762,5.762,0,0,1,.722-1.624,3.92,3.92,0,0,1,1.218-1.218,3.312,3.312,0,0,1,3.337,0,3.939,3.939,0,0,1,1.218,1.218,5.782,5.782,0,0,1,.722,1.624,7.9,7.9,0,0,1,.226,1.714Zm-6.134,3.067h4.6V26H18.762V20.589H17.409l-1.8,1.669.947.947a7.384,7.384,0,0,0,.631-.676h.045V26H15.695v1.128Z" transform="translate(-6.449 -16.35)" fill="#005493"/>
</svg>
