<svg xmlns="http://www.w3.org/2000/svg" width="12" height="12" viewBox="0 0 12 12">
  <g id="Group_385" data-name="Group 385" transform="translate(-9435.391 -6415)">
    <path id="Path_356" data-name="Path 356" d="M299.425,143.273a2.152,2.152,0,1,1-2.152-2.152,2.151,2.151,0,0,1,2.152,2.152" transform="translate(9144.554 6275.541)" fill="#005493"/>
    <path id="Path_357" data-name="Path 357" d="M168.295,87.922h-8.746a1.635,1.635,0,0,0-1.627,1.627v8.746a1.635,1.635,0,0,0,1.627,1.627h8.746a1.635,1.635,0,0,0,1.627-1.627V89.549A1.613,1.613,0,0,0,168.295,87.922Zm-1.8,6.42a.4.4,0,0,1,.088.665.372.372,0,0,1-.42.052,4.355,4.355,0,0,0-1.784-.385,4.287,4.287,0,0,0-4.268,3.936.4.4,0,0,1-.8-.07,5.094,5.094,0,0,1,1.469-3.166,4.973,4.973,0,0,1,1.924-1.207,2.938,2.938,0,1,1,4.6-2.414,2.983,2.983,0,0,1-1.277,2.431,1.664,1.664,0,0,1,.472.157Z" transform="translate(9277.469 6327.078)" fill="#005493"/>
  </g>
</svg>
