<svg xmlns="http://www.w3.org/2000/svg" width="21.294" height="22.652" viewBox="0 0 21.294 22.652">
  <g id="Group_159" data-name="Group 159" transform="translate(0.001 0)">
    <path id="Path_135" data-name="Path 135" d="M125.763,295.659a.4.4,0,0,1-.8,0v-1.973a10.371,10.371,0,0,0-3.3.578l.474-3.327a4.823,4.823,0,0,0-4,4.749V299.7a16,16,0,0,0,7.248,1.736,16.447,16.447,0,0,0,2.394-.185v-7.365a14.246,14.246,0,0,0-2.009-.2Z" transform="translate(-118.13 -279.462)" fill="#1568a8"/>
    <path id="Path_136" data-name="Path 136" d="M206.032,289.35l-.4,2.812a9.362,9.362,0,0,1,2.08-.353,2.007,2.007,0,0,1-.875-1.656v-.8Z" transform="translate(-201.613 -277.947)" fill="#1568a8"/>
    <path id="Path_137" data-name="Path 137" d="M301.985,289.36h-.8v.8a2,2,0,0,1-.876,1.655,11.537,11.537,0,0,1,1.277.157v-1.41a1.2,1.2,0,0,1,.442-.932Z" transform="translate(-291.942 -277.956)" fill="#1568a8"/>
    <path id="Path_138" data-name="Path 138" d="M196.155,45.6v-1.38A3.214,3.214,0,0,0,192.941,41h-1.607a3.214,3.214,0,0,0-3.214,3.214V45.6A10.916,10.916,0,0,1,196.155,45.6Z" transform="translate(-184.907 -41.003)" fill="#1568a8"/>
    <path id="Path_139" data-name="Path 139" d="M189.992,135.791a4.32,4.32,0,0,1,3.654,0,.809.809,0,0,0,.994-.248l1.212-1.658a10.539,10.539,0,0,0-8.067,0L189,135.542a.809.809,0,0,0,.993.248Z" transform="translate(-184.589 -128.854)" fill="#1568a8"/>
    <path id="Path_140" data-name="Path 140" d="M347.326,298.1h-9.642a.8.8,0,0,0-.8.8v9.241a.8.8,0,0,0,.8.8h9.642a.8.8,0,0,0,.8-.8V298.9a.8.8,0,0,0-.8-.8Zm-6.83,3.588v-2.812h4.018v2.812a.4.4,0,0,1-.4.4H340.9A.4.4,0,0,1,340.5,301.688Zm2.612,6.456h-.8a.4.4,0,0,1,0-.8h.8a.4.4,0,0,1,0,.8Zm4.018,0h-2.411a.4.4,0,0,1,0-.8h2.411a.4.4,0,0,1,0,.8Zm.4-1.808a.4.4,0,0,1-.4.4H342.3a.4.4,0,0,1-.4-.4v-1.205a.4.4,0,0,1,.4-.4h4.821a.4.4,0,0,1,.4.4Z" transform="translate(-326.836 -286.295)" fill="#1568a8"/>
    <path id="Path_141" data-name="Path 141" d="M183.379,159.46l-.214.293-.215.295-.657.9c-.014.019-.031.035-.046.053v.753a2.815,2.815,0,0,1-2.789,2.841h-.62a2.816,2.816,0,0,1-2.789-2.841V161c-.015-.018-.032-.034-.046-.053l-.793-1.084-.08-.109-.214-.293a1.245,1.245,0,0,0-.389,1.162,1,1,0,0,0,1,1,3.644,3.644,0,0,0,2.009,3.368v1.233a1.607,1.607,0,0,0,3.214,0v-1.233a3.644,3.644,0,0,0,2.009-3.368,1,1,0,0,0,1-1,1.246,1.246,0,0,0-.388-1.162Z" transform="translate(-171.916 -154.021)" fill="#1568a8"/>
  </g>
</svg>
