<svg xmlns="http://www.w3.org/2000/svg" width="41.115" height="30.836" viewBox="0 0 41.115 30.836">
  <path id="Icon_awesome-image" data-name="Icon awesome-image" d="M37.26,35.336H3.855A3.854,3.854,0,0,1,0,31.482V8.355A3.854,3.854,0,0,1,3.855,4.5H37.26a3.854,3.854,0,0,1,3.855,3.855V31.482A3.854,3.854,0,0,1,37.26,35.336ZM8.994,9a4.5,4.5,0,1,0,4.5,4.5A4.5,4.5,0,0,0,8.994,9ZM5.139,30.2H35.975V21.2l-7.028-7.028a.964.964,0,0,0-1.363,0L16.7,25.057,12.245,20.6a.964.964,0,0,0-1.363,0L5.139,26.342Z" transform="translate(0 -4.5)" fill="#1568a8"/>
</svg>
