<svg xmlns="http://www.w3.org/2000/svg" xmlns:xlink="http://www.w3.org/1999/xlink" width="32" height="32" viewBox="0 0 32 32">
  <defs>
    <clipPath id="clip-path">
      <rect id="Rectangle_113" data-name="Rectangle 113" width="32" height="32" transform="translate(31 506)" fill="#fff" stroke="#707070" stroke-width="1"/>
    </clipPath>
  </defs>
  <g id="Mask_Group_1" data-name="Mask Group 1" transform="translate(-31 -506)" clip-path="url(#clip-path)">
    <g id="_625a3bfe8f403a31ac2fce20_logo-qisstpay" data-name="625a3bfe8f403a31ac2fce20_logo-qisstpay" transform="translate(35.001 510.392)">
      <path id="Path_142" data-name="Path 142" d="M62.113,21.028a5.863,5.863,0,0,0,.982-.737,5.388,5.388,0,0,0,.737-.921,3.667,3.667,0,0,0,.46-1.074,3.764,3.764,0,0,0,.184-1.2,4.012,4.012,0,0,0-.4-1.811,4.766,4.766,0,0,0-1.1-1.473A5.2,5.2,0,0,0,61.345,12.8a5.361,5.361,0,0,0-1.995-.368,6.5,6.5,0,0,0-1.35.153,7.262,7.262,0,0,0-1.228.46,6.372,6.372,0,0,0-1.044.737,3.985,3.985,0,0,0-.8.951,4.565,4.565,0,0,0-.522,1.1,4.184,4.184,0,0,0,0,2.455,4.565,4.565,0,0,0,.522,1.1,4.692,4.692,0,0,0,.8.951,5.283,5.283,0,0,0,1.044.737A4.223,4.223,0,0,0,58,21.55a4.93,4.93,0,0,0,1.35.153,6.347,6.347,0,0,0,1.074-.092,5.165,5.165,0,0,0,.982-.276l.645.8a5.738,5.738,0,0,1-1.289.4,7.105,7.105,0,0,1-1.412.153,6.769,6.769,0,0,1-2.394-.43,7.014,7.014,0,0,1-1.964-1.2,5.725,5.725,0,0,1-1.32-1.78,5.08,5.08,0,0,1,0-4.358,5.894,5.894,0,0,1,3.284-2.977,6.253,6.253,0,0,1,2.394-.43,7.07,7.07,0,0,1,2.425.43,6.6,6.6,0,0,1,1.964,1.2,5.724,5.724,0,0,1,1.32,1.78,5.246,5.246,0,0,1,.368,3.345,5.324,5.324,0,0,1-.4,1.1,6.555,6.555,0,0,1-.614.982,7.265,7.265,0,0,1-.829.859c.522.614,1.013,1.228,1.535,1.841s1.013,1.258,1.535,1.9h-.491a1.449,1.449,0,0,1-1.289-.583Z" transform="translate(-23.986 -5.193)" fill="#111"/>
      <path id="Path_143" data-name="Path 143" d="M83.631,22.7H82.588V11.678h1.043Z" transform="translate(-37.248 -5.267)" fill="#111"/>
      <path id="Path_144" data-name="Path 144" d="M96.529,13.02a3.156,3.156,0,0,1-.338-.246c-.092-.061-.215-.123-.307-.184a1.225,1.225,0,0,0-.4-.123,2.984,2.984,0,0,0-.552-.031,2.893,2.893,0,0,0-.921.153,2.584,2.584,0,0,0-.767.4,2.305,2.305,0,0,0-.522.583,1.426,1.426,0,0,0-.184.706,1.617,1.617,0,0,0,.123.706,1.485,1.485,0,0,0,.4.491,2.969,2.969,0,0,0,.767.4c.307.123.706.246,1.166.4.246.092.491.153.706.246.215.061.43.153.614.215a2.719,2.719,0,0,1,.522.246c.153.092.338.184.491.276a2.177,2.177,0,0,1,.828,1.013,3.6,3.6,0,0,1,.246,1.32,2.508,2.508,0,0,1-.307,1.289,2.932,2.932,0,0,1-.86.982,4,4,0,0,1-1.258.614,4.95,4.95,0,0,1-1.5.215,4.159,4.159,0,0,1-2.67-.859,3.7,3.7,0,0,1-.491-.491,3.377,3.377,0,0,1-.338-.43l.123-.061a1.244,1.244,0,0,1,.522-.153,1.8,1.8,0,0,1,.4.061.732.732,0,0,1,.338.184A6.51,6.51,0,0,0,93,21.4c.184.092.368.184.522.246a1.39,1.39,0,0,0,.491.092c.153,0,.307.031.491.031a5.651,5.651,0,0,0,1.013-.092,3.1,3.1,0,0,0,.921-.4,2.363,2.363,0,0,0,.675-.675,1.675,1.675,0,0,0,.245-.982,1.914,1.914,0,0,0-.215-1.013,1.772,1.772,0,0,0-.553-.614,4.485,4.485,0,0,0-.859-.4,8.563,8.563,0,0,1-1.044-.368c-.491-.184-.921-.338-1.32-.491a5.172,5.172,0,0,1-1.013-.522,2.426,2.426,0,0,1-.645-.737,2.53,2.53,0,0,1-.246-1.166,2.139,2.139,0,0,1,.307-1.166,3.689,3.689,0,0,1,.8-.89,4.2,4.2,0,0,1,1.1-.583,4.329,4.329,0,0,1,1.258-.215,3.313,3.313,0,0,1,.982.123,3.657,3.657,0,0,1,.8.338,3.359,3.359,0,0,1,.645.43c.184.153.368.338.522.491l-.276.153a.616.616,0,0,1-.245.123.946.946,0,0,1-.307.031A1.007,1.007,0,0,1,96.529,13.02Z" transform="translate(-41.031 -5.166)" fill="#111"/>
      <path id="Path_145" data-name="Path 145" d="M114.2,13.02a3.153,3.153,0,0,1-.338-.246c-.092-.061-.215-.123-.307-.184a1.526,1.526,0,0,0-.4-.123,2.988,2.988,0,0,0-.553-.031,2.892,2.892,0,0,0-.921.153,2.579,2.579,0,0,0-.767.4,2.3,2.3,0,0,0-.522.583,1.429,1.429,0,0,0-.184.706,1.623,1.623,0,0,0,.122.706,1.489,1.489,0,0,0,.4.491,2.976,2.976,0,0,0,.768.4c.307.123.706.246,1.166.4.246.092.491.153.706.246.215.061.43.153.614.215a2.72,2.72,0,0,1,.522.246c.153.092.338.184.491.276a2.181,2.181,0,0,1,.829,1.013,3.614,3.614,0,0,1,.245,1.32,2.508,2.508,0,0,1-.307,1.289,2.933,2.933,0,0,1-.86.982,4,4,0,0,1-1.258.614,4.949,4.949,0,0,1-1.5.215,4.159,4.159,0,0,1-2.67-.859,3.691,3.691,0,0,1-.491-.491c-.123-.153-.246-.307-.338-.43l.122-.061a1.246,1.246,0,0,1,.522-.153,1.793,1.793,0,0,1,.4.061.729.729,0,0,1,.338.184,6.575,6.575,0,0,0,.645.46c.184.092.368.184.522.246a1.389,1.389,0,0,0,.491.092c.154,0,.307.031.491.031a5.652,5.652,0,0,0,1.013-.092,3.1,3.1,0,0,0,.921-.4,2.363,2.363,0,0,0,.675-.675,1.675,1.675,0,0,0,.245-.982,1.914,1.914,0,0,0-.215-1.013,1.772,1.772,0,0,0-.553-.614,4.484,4.484,0,0,0-.859-.4,8.567,8.567,0,0,1-1.044-.368c-.491-.184-.921-.338-1.32-.491a5.184,5.184,0,0,1-1.013-.522,2.431,2.431,0,0,1-.645-.737,2.534,2.534,0,0,1-.245-1.166,2.14,2.14,0,0,1,.307-1.166,3.7,3.7,0,0,1,.8-.89,4.756,4.756,0,0,1,1.1-.583,4.332,4.332,0,0,1,1.258-.215,3.313,3.313,0,0,1,.982.123,3.654,3.654,0,0,1,.8.338,3.358,3.358,0,0,1,.645.43c.184.153.368.338.522.491l-.276.153a.616.616,0,0,1-.245.123.946.946,0,0,1-.307.031A1.007,1.007,0,0,1,114.2,13.02Z" transform="translate(-48.998 -5.166)" fill="#111"/>
      <path id="Path_146" data-name="Path 146" d="M125.8,12.6v-.982h9.023V12.6h-3.99V22.64h-1.044V12.6Z" transform="translate(-56.739 -5.242)" fill="#111"/>
      <path id="Path_147" data-name="Path 147" d="M147.55,22.7,150.1,11.678h3.775a4.405,4.405,0,0,1,2.916.859,2.962,2.962,0,0,1,1.074,2.333,3.893,3.893,0,0,1-.552,2.056,3.765,3.765,0,0,1-1.6,1.412,5.473,5.473,0,0,1-2.456.522H149.7l.4-1.811h3.223a2.629,2.629,0,0,0,1.258-.276,1.623,1.623,0,0,0,.737-.767,1.89,1.89,0,0,0,.215-1.013,1.507,1.507,0,0,0-.46-1.074,2.043,2.043,0,0,0-1.412-.4H152l-2.148,9.207h-2.3Z" transform="translate(-66.547 -5.267)" fill="#111"/>
      <path id="Path_148" data-name="Path 148" d="M164.657,22.7l6.507-11.018h2.793L175.337,22.7h-2.21l-.768-7.3-.153-1.78h-.031l-.921,1.749L167.113,22.7ZM167.7,19.9l.4-1.688h5.984l-.4,1.688Z" transform="translate(-74.263 -5.267)" fill="#111"/>
      <path id="Path_149" data-name="Path 149" d="M190.54,22.7l.982-4.174-2.21-6.844h2.271l1.012,3.315.461,1.78,1.2-1.811,2.456-3.284h2.547l-5.432,7L192.9,22.7Z" transform="translate(-85.383 -5.267)" fill="#111"/>
      <circle id="Ellipse_26" data-name="Ellipse 26" cx="12.352" cy="12.352" r="12.352" fill="#111"/>
      <path id="Path_150" data-name="Path 150" d="M17.74,32.074v.03a.015.015,0,0,1,.015.015v-.03A.015.015,0,0,0,17.74,32.074Z" transform="translate(-8.001 -14.466)" fill="#e72e80"/>
      <path id="Path_151" data-name="Path 151" d="M19.031,14.748A4.263,4.263,0,0,0,14.775,19v6.451c.015.015.045.03.06.045a8.246,8.246,0,0,0,1.195.627c.134.06.269.1.4.149h.015v-.03l-.015-1.971a.015.015,0,0,1-.015-.015v-.03a.015.015,0,0,1,.015.015l-.015-1.911a4.192,4.192,0,0,0,2.613.9,4.241,4.241,0,1,0,0-8.482Zm0,6.884A2.628,2.628,0,1,1,21.659,19,2.632,2.632,0,0,1,19.031,21.632Z" transform="translate(-6.664 -6.652)" fill="#e72e80"/>
      <path id="Path_152" data-name="Path 152" d="M21.19,22.026h2.7v1.852h-7.72c-.194,0-.373,0-.567-.015a1.315,1.315,0,0,1-.254-.03h-.015a7.068,7.068,0,0,1-1.747-.4V23.4l-.015-1.971V21.4A5.72,5.72,0,1,0,11.9,20.2v2.4a7.768,7.768,0,0,1-2.867-3.434,7.988,7.988,0,0,1-.6-3.016,7.6,7.6,0,0,1,.612-3,7.405,7.405,0,0,1,1.657-2.449A7.562,7.562,0,0,1,13.156,9.05a7.706,7.706,0,0,1,3-.612,7.6,7.6,0,0,1,3,.612,7.4,7.4,0,0,1,2.449,1.657,7.561,7.561,0,0,1,1.657,2.449,7.663,7.663,0,0,1,0,6,7.406,7.406,0,0,1-1.657,2.449A3.685,3.685,0,0,1,21.19,22.026Z" transform="translate(-3.805 -3.805)" fill="#fcebf3"/>
    </g>
  </g>
</svg>
