<svg xmlns="http://www.w3.org/2000/svg" width="369.921" height="18.194" viewBox="0 0 369.921 18.194">
  <path id="Exclusion_1" data-name="Exclusion 1" d="M11932.809-6002.807h-1.824v-13.009h1.824v1.3a3.683,3.683,0,0,1,1.264-1.026,3.875,3.875,0,0,1,1.809-.414,4.066,4.066,0,0,1,2.1.566,4.02,4.02,0,0,1,1.5,1.593,4.963,4.963,0,0,1,.545,2.351,5.128,5.128,0,0,1-.545,2.378,4.093,4.093,0,0,1-1.5,1.632,4,4,0,0,1-2.1.582,3.816,3.816,0,0,1-1.793-.408,4,4,0,0,1-1.279-1.014v5.471Zm2.671-11.569a2.594,2.594,0,0,0-1.3.35,2.643,2.643,0,0,0-.993,1.026,3.207,3.207,0,0,0-.375,1.583,3.261,3.261,0,0,0,.375,1.593,2.616,2.616,0,0,0,.993,1.032,2.594,2.594,0,0,0,1.3.35,2.589,2.589,0,0,0,1.321-.359,2.662,2.662,0,0,0,.99-1.047,3.3,3.3,0,0,0,.377-1.6,3.142,3.142,0,0,0-.377-1.574,2.568,2.568,0,0,0-.99-1.008A2.687,2.687,0,0,0,11935.479-6014.375Zm81.23,9.827a4.61,4.61,0,0,1-2.3-.609l-3.066-1.742a4.7,4.7,0,0,1-1.718-1.7,4.664,4.664,0,0,1-.63-2.335v-5.521a3.6,3.6,0,0,1,.755-2.208,3.617,3.617,0,0,1,1.949-1.282l3.23-.828a7.123,7.123,0,0,1,1.775-.224,7.123,7.123,0,0,1,1.775.224l3.231.828a3.605,3.605,0,0,1,1.952,1.282,3.61,3.61,0,0,1,.755,2.208v5.521a4.662,4.662,0,0,1-.634,2.335,4.67,4.67,0,0,1-1.716,1.7l-3.064,1.742A4.633,4.633,0,0,1,12016.71-6004.549Zm0-14.392a4.921,4.921,0,0,0-1.264.162l-3.23.825a1.573,1.573,0,0,0-.835.548,1.534,1.534,0,0,0-.325.947v5.521a2.59,2.59,0,0,0,.35,1.3,2.619,2.619,0,0,0,.961.953l3.059,1.742a2.606,2.606,0,0,0,1.286.341,2.6,2.6,0,0,0,1.285-.341l3.061-1.742a2.64,2.64,0,0,0,.958-.953,2.557,2.557,0,0,0,.351-1.3v-5.521a1.532,1.532,0,0,0-.322-.947,1.573,1.573,0,0,0-.835-.548l-3.234-.825A4.921,4.921,0,0,0,12016.71-6018.94Zm-234.615,14.179h-12.379a5.721,5.721,0,0,1-5.716-5.713,5.692,5.692,0,0,1,5.095-5.676,7.121,7.121,0,0,1,6.334-3.849,7.151,7.151,0,0,1,7,5.752,4.754,4.754,0,0,1,3.143,1.483,4.7,4.7,0,0,1,1.285,3.24A4.768,4.768,0,0,1,11782.095-6004.762Zm-8.572-6.666v3.81h3.813v-3.81h2.856l-4.763-4.762h0l-4.763,4.763Zm298.206,4.635a2.408,2.408,0,0,1-1.754-.669,2.5,2.5,0,0,1-.68-1.843,2.451,2.451,0,0,1,.68-1.83,2.387,2.387,0,0,1,1.754-.665,2.384,2.384,0,0,1,1.735.665,2.444,2.444,0,0,1,.679,1.83,2.492,2.492,0,0,1-.679,1.843A2.377,2.377,0,0,1,12071.729-6006.793Zm-.016-3.9c-.669,0-1.008.468-1.008,1.392s.339,1.392,1.008,1.392,1.008-.468,1.008-1.392S12072.382-6010.7,12071.713-6010.7Zm57.92,3.84a4.539,4.539,0,0,1-2.266-.566,4.1,4.1,0,0,1-1.568-1.6,4.919,4.919,0,0,1-.566-2.391,5.007,5.007,0,0,1,.552-2.394,3.882,3.882,0,0,1,1.553-1.59,4.632,4.632,0,0,1,2.3-.56,4.519,4.519,0,0,1,2.224.542,3.863,3.863,0,0,1,1.519,1.529,4.628,4.628,0,0,1,.546,2.266,5.646,5.646,0,0,1-.064.9h-6.735a2.453,2.453,0,0,0,.782,1.7,2.49,2.49,0,0,0,1.729.639,2.142,2.142,0,0,0,2.08-1.233h1.967a4.009,4.009,0,0,1-1.446,1.995A4.288,4.288,0,0,1,12129.633-6006.857Zm-.082-7.567a2.357,2.357,0,0,0-1.614.6,2.526,2.526,0,0,0-.8,1.623h4.879a2.081,2.081,0,0,0-.719-1.614A2.592,2.592,0,0,0,12129.551-6014.424Zm-26.128,7.567a4.393,4.393,0,0,1-2.237-.566,4.014,4.014,0,0,1-1.529-1.6,5,5,0,0,1-.552-2.391,5.007,5.007,0,0,1,.552-2.394,3.922,3.922,0,0,1,1.529-1.59,4.424,4.424,0,0,1,2.237-.56,4.43,4.43,0,0,1,2.649.758,3.778,3.778,0,0,1,1.416,2.168h-1.968a2.1,2.1,0,0,0-.771-1.023,2.26,2.26,0,0,0-1.327-.369,2.225,2.225,0,0,0-1.784.792,3.377,3.377,0,0,0-.664,2.217,3.4,3.4,0,0,0,.664,2.223,2.214,2.214,0,0,0,1.784.8,2.031,2.031,0,0,0,2.1-1.392h1.968a3.951,3.951,0,0,1-1.44,2.135A4.254,4.254,0,0,1,12103.423-6006.857Zm-9.79,0a4.533,4.533,0,0,1-2.266-.566,4.092,4.092,0,0,1-1.568-1.6,4.908,4.908,0,0,1-.566-2.391,5.025,5.025,0,0,1,.551-2.394,3.878,3.878,0,0,1,1.554-1.59,4.627,4.627,0,0,1,2.3-.56,4.519,4.519,0,0,1,2.224.542,3.857,3.857,0,0,1,1.519,1.529,4.643,4.643,0,0,1,.545,2.266,5.854,5.854,0,0,1-.063.9h-6.736a2.441,2.441,0,0,0,.786,1.7,2.476,2.476,0,0,0,1.727.639,2.139,2.139,0,0,0,2.079-1.233h1.968a3.988,3.988,0,0,1-1.446,1.995A4.3,4.3,0,0,1,12093.633-6006.857Zm-.079-7.567a2.358,2.358,0,0,0-1.617.6,2.521,2.521,0,0,0-.8,1.623h4.881a2.078,2.078,0,0,0-.722-1.614A2.584,2.584,0,0,0,12093.554-6014.424Zm-187.707,7.567a4.393,4.393,0,0,1-2.237-.566,4.02,4.02,0,0,1-1.53-1.6,5.021,5.021,0,0,1-.551-2.391,5.025,5.025,0,0,1,.551-2.394,3.928,3.928,0,0,1,1.53-1.59,4.424,4.424,0,0,1,2.237-.56,4.422,4.422,0,0,1,2.649.758,3.769,3.769,0,0,1,1.416,2.168h-1.968a2.118,2.118,0,0,0-.768-1.023,2.278,2.278,0,0,0-1.33-.369,2.218,2.218,0,0,0-1.782.792,3.363,3.363,0,0,0-.663,2.217,3.385,3.385,0,0,0,.663,2.223,2.208,2.208,0,0,0,1.782.8,2.031,2.031,0,0,0,2.1-1.392h1.968a3.951,3.951,0,0,1-1.44,2.135A4.258,4.258,0,0,1,11905.847-6006.857Zm-11.039,0a3.919,3.919,0,0,1-2.08-.582,4.16,4.16,0,0,1-1.5-1.632,5.055,5.055,0,0,1-.552-2.378,4.892,4.892,0,0,1,.552-2.351,4.07,4.07,0,0,1,1.5-1.593,4.051,4.051,0,0,1,2.1-.566,3.839,3.839,0,0,1,1.815.408,3.67,3.67,0,0,1,1.239,1.014v-1.279h1.842V-6007h-1.842v-1.312a3.622,3.622,0,0,1-1.264,1.042A3.914,3.914,0,0,1,11894.808-6006.857Zm.417-7.519a2.644,2.644,0,0,0-1.313.344,2.576,2.576,0,0,0-.982,1.008,3.152,3.152,0,0,0-.378,1.574,3.312,3.312,0,0,0,.378,1.6,2.659,2.659,0,0,0,.992,1.047,2.522,2.522,0,0,0,1.3.359,2.588,2.588,0,0,0,1.313-.35,2.652,2.652,0,0,0,.983-1.032,3.261,3.261,0,0,0,.375-1.593,3.207,3.207,0,0,0-.375-1.583,2.651,2.651,0,0,0-.983-1.026A2.588,2.588,0,0,0,11895.225-6014.375Zm-25.5,7.519a3.909,3.909,0,0,1-2.08-.582,4.172,4.172,0,0,1-1.5-1.632,5.094,5.094,0,0,1-.551-2.378,4.931,4.931,0,0,1,.551-2.351,4.1,4.1,0,0,1,1.5-1.593,4.06,4.06,0,0,1,2.1-.566,3.841,3.841,0,0,1,1.818.408,3.728,3.728,0,0,1,1.239,1.014v-1.279h1.84V-6007h-1.84v-1.312a3.648,3.648,0,0,1-1.264,1.042A3.914,3.914,0,0,1,11869.721-6006.857Zm.414-7.519a2.629,2.629,0,0,0-1.309.344,2.558,2.558,0,0,0-.987,1.008,3.162,3.162,0,0,0-.374,1.574,3.322,3.322,0,0,0,.374,1.6,2.7,2.7,0,0,0,.993,1.047,2.556,2.556,0,0,0,1.3.359,2.586,2.586,0,0,0,1.313-.35,2.666,2.666,0,0,0,.983-1.032,3.25,3.25,0,0,0,.377-1.593,3.2,3.2,0,0,0-.377-1.583,2.65,2.65,0,0,0-.983-1.026A2.586,2.586,0,0,0,11870.135-6014.375Zm-17.214,7.519a3.919,3.919,0,0,1-2.08-.582,4.157,4.157,0,0,1-1.5-1.632,5.074,5.074,0,0,1-.552-2.378,4.911,4.911,0,0,1,.552-2.351,4.091,4.091,0,0,1,1.5-1.593,4.075,4.075,0,0,1,2.105-.566,3.839,3.839,0,0,1,1.817.408,3.718,3.718,0,0,1,1.24,1.014v-1.279h1.839V-6007h-1.839v-1.312a3.661,3.661,0,0,1-1.265,1.042A3.907,3.907,0,0,1,11852.921-6006.857Zm.414-7.519a2.632,2.632,0,0,0-1.31.344,2.6,2.6,0,0,0-.987,1.008,3.169,3.169,0,0,0-.374,1.574,3.33,3.33,0,0,0,.374,1.6,2.7,2.7,0,0,0,.993,1.047,2.557,2.557,0,0,0,1.3.359,2.554,2.554,0,0,0,1.313-.35,2.61,2.61,0,0,0,.983-1.032,3.23,3.23,0,0,0,.378-1.593,3.177,3.177,0,0,0-.378-1.583,2.648,2.648,0,0,0-.983-1.026A2.554,2.554,0,0,0,11853.335-6014.375Zm-25.824,7.519a4.549,4.549,0,0,1-2.256-.566,4.134,4.134,0,0,1-1.584-1.6,4.848,4.848,0,0,1-.575-2.391,4.762,4.762,0,0,1,.594-2.384,4.067,4.067,0,0,1,1.615-1.6,4.687,4.687,0,0,1,2.286-.56,4.705,4.705,0,0,1,2.29.56,4.094,4.094,0,0,1,1.616,1.6,4.78,4.78,0,0,1,.591,2.384,4.653,4.653,0,0,1-.608,2.384,4.263,4.263,0,0,1-1.653,1.608A4.822,4.822,0,0,1,11827.511-6006.857Zm.049-7.519a2.653,2.653,0,0,0-1.3.335,2.419,2.419,0,0,0-.952,1,3.448,3.448,0,0,0-.351,1.623,3.063,3.063,0,0,0,.728,2.2,2.409,2.409,0,0,0,1.83.776,2.754,2.754,0,0,0,1.322-.335,2.6,2.6,0,0,0,1-1.008,3.253,3.253,0,0,0,.384-1.632,3.294,3.294,0,0,0-.369-1.623,2.482,2.482,0,0,0-.974-1A2.7,2.7,0,0,0,11827.56-6014.375Zm285.3,7.5a3.972,3.972,0,0,1-1.864-.433,3.109,3.109,0,0,1-1.294-1.279,4.162,4.162,0,0,1-.472-2.049v-5.183h1.806v4.912a2.558,2.558,0,0,0,.594,1.815,2.1,2.1,0,0,0,1.614.633,2.117,2.117,0,0,0,1.626-.633,2.553,2.553,0,0,0,.6-1.815v-4.912h1.824V-6007h-1.824v-1.042a2.935,2.935,0,0,1-1.13.859A3.6,3.6,0,0,1,12112.863-6006.872Zm-188.712,0a3.955,3.955,0,0,1-1.864-.433,3.109,3.109,0,0,1-1.294-1.279,4.17,4.17,0,0,1-.475-2.049v-5.183h1.809v4.912a2.561,2.561,0,0,0,.594,1.815,2.1,2.1,0,0,0,1.614.633,2.117,2.117,0,0,0,1.626-.633,2.553,2.553,0,0,0,.6-1.815v-4.912h1.824V-6007h-1.824v-1.042a2.95,2.95,0,0,1-1.13.859A3.6,3.6,0,0,1,11924.151-6006.872Zm-113.246,0a3.972,3.972,0,0,1-1.866-.433,3.109,3.109,0,0,1-1.294-1.279,4.186,4.186,0,0,1-.473-2.049v-5.183h1.81v4.912a2.562,2.562,0,0,0,.59,1.815,2.11,2.11,0,0,0,1.617.633,2.14,2.14,0,0,0,1.623-.633,2.546,2.546,0,0,0,.6-1.815v-4.912h1.824V-6007h-1.824v-1.042a2.956,2.956,0,0,1-1.13.859A3.6,3.6,0,0,1,11810.905-6006.872Zm272.934-.015a4.985,4.985,0,0,1-2.016-.393,3.335,3.335,0,0,1-1.407-1.111,2.844,2.844,0,0,1-.512-1.681h1.952a1.751,1.751,0,0,0,.566,1.185,2.024,2.024,0,0,0,1.416.463,2.208,2.208,0,0,0,1.474-.454,1.5,1.5,0,0,0,.527-1.179,1.279,1.279,0,0,0-.329-.91,2.2,2.2,0,0,0-.813-.545,12.364,12.364,0,0,0-1.354-.414,12.747,12.747,0,0,1-1.767-.584,2.957,2.957,0,0,1-1.16-.92,2.681,2.681,0,0,1-.481-1.666,2.968,2.968,0,0,1,.481-1.678,3.077,3.077,0,0,1,1.343-1.1,4.909,4.909,0,0,1,2-.384,4.207,4.207,0,0,1,2.649.807,2.989,2.989,0,0,1,1.142,2.217h-2.016a1.45,1.45,0,0,0-.575-1.039,2.127,2.127,0,0,0-1.392-.433,1.989,1.989,0,0,0-1.279.4,1.4,1.4,0,0,0-.5,1.151,1.18,1.18,0,0,0,.311.84,2.192,2.192,0,0,0,.791.521,12.553,12.553,0,0,0,1.313.417,13.657,13.657,0,0,1,1.8.606,2.994,2.994,0,0,1,1.185.938,2.693,2.693,0,0,1,.487,1.687,3,3,0,0,1-.456,1.6,3.289,3.289,0,0,1-1.325,1.209A4.4,4.4,0,0,1,12083.839-6006.887ZM11913.56-6007h-1.824v-11.84h1.824v6.879l3.2-3.855h2.527l-4.065,4.416,4.064,4.4h-2.463l-3.265-3.792V-6007Zm-116.11,0h-1.906l3.985-11.136h2.11l3.986,11.135h-1.921l-.8-2.272h-4.656l-.8,2.272Zm3.136-8.93h0l-1.826,5.168h3.633l-1.807-5.168Zm320.936,8.929h-1.824v-8.816h1.824v1.279a2.882,2.882,0,0,1,1.063-1.047,3.194,3.194,0,0,1,1.578-.375v1.888h-.463a2.242,2.242,0,0,0-1.627.542,2.613,2.613,0,0,0-.551,1.888v4.64Zm-55.359,0h-1.793l6.383-11.136h1.793l-6.383,11.136Zm-26.112,0h-1.839v-10h-1.489v-1.663h3.328V-6007Zm-154.393,0h-4.449v-11.121h4.242a4.534,4.534,0,0,1,1.952.387,2.883,2.883,0,0,1,1.23,1.029,2.645,2.645,0,0,1,.417,1.45,2.487,2.487,0,0,1-.512,1.6,3,3,0,0,1-1.376.944,2.482,2.482,0,0,1,1.52.944,2.8,2.8,0,0,1,.624,1.775,2.755,2.755,0,0,1-.441,1.529,3,3,0,0,1-1.27,1.072A4.53,4.53,0,0,1,11885.656-6007Zm-2.625-4.96v3.471h2.464a2.182,2.182,0,0,0,1.456-.448,1.553,1.553,0,0,0,.529-1.249,1.627,1.627,0,0,0-.561-1.294,2.223,2.223,0,0,0-1.488-.481Zm0-4.671v3.185h2.257a2.186,2.186,0,0,0,1.4-.408,1.423,1.423,0,0,0,.5-1.178,1.462,1.462,0,0,0-.5-1.176,2.124,2.124,0,0,0-1.4-.423ZM11864.52-6007h-1.44a2.793,2.793,0,0,1-1.888-.576,2.39,2.39,0,0,1-.655-1.873v-4.878h-1.041v-1.489h1.041v-2.192h1.84v2.192h2.144v1.489h-2.144v4.878a.942.942,0,0,0,.231.713,1.167,1.167,0,0,0,.792.216h1.12V-6007Zm-22.83,0h-3.633v-11.121h3.633a6.78,6.78,0,0,1,3.109.682,4.841,4.841,0,0,1,2.064,1.952,5.866,5.866,0,0,1,.729,2.966,5.748,5.748,0,0,1-.729,2.945,4.815,4.815,0,0,1-2.064,1.912A6.94,6.94,0,0,1,11841.689-6007Zm-1.809-9.632v8.143h1.809a4.033,4.033,0,0,0,2.99-1.054,4.087,4.087,0,0,0,1.039-2.978,4.211,4.211,0,0,0-1.039-3.024,3.964,3.964,0,0,0-2.99-1.087Zm-17.872,9.632h-1.44a2.794,2.794,0,0,1-1.889-.576,2.382,2.382,0,0,1-.654-1.873v-4.878h-1.041v-1.489h1.041v-2.192h1.839v2.192h2.145v1.489h-2.145v4.878a.942.942,0,0,0,.231.713,1.167,1.167,0,0,0,.792.216h1.121V-6007Zm234.966-.034a3.455,3.455,0,0,1-3.223-1.574,8.634,8.634,0,0,1-.935-4.376,8.453,8.453,0,0,1,.935-4.327,3.465,3.465,0,0,1,3.223-1.562,3.465,3.465,0,0,1,3.225,1.563,8.449,8.449,0,0,1,.938,4.327,8.629,8.629,0,0,1-.937,4.376A3.455,3.455,0,0,1,12056.975-6007.034Zm0-10.174a1.955,1.955,0,0,0-1.521.566,2.973,2.973,0,0,0-.679,1.465,12.165,12.165,0,0,0-.167,2.192,13.5,13.5,0,0,0,.158,2.256,2.86,2.86,0,0,0,.682,1.471,1.99,1.99,0,0,0,1.526.56,1.981,1.981,0,0,0,1.528-.56,2.827,2.827,0,0,0,.682-1.471,13.417,13.417,0,0,0,.159-2.256,12.183,12.183,0,0,0-.168-2.192,2.973,2.973,0,0,0-.679-1.465A1.958,1.958,0,0,0,12056.975-6017.208Zm-10.254,10.174a3.455,3.455,0,0,1-3.225-1.574,8.619,8.619,0,0,1-.938-4.376,8.441,8.441,0,0,1,.938-4.327,3.465,3.465,0,0,1,3.225-1.562,3.465,3.465,0,0,1,3.225,1.563,8.462,8.462,0,0,1,.936,4.327,8.642,8.642,0,0,1-.936,4.376A3.455,3.455,0,0,1,12046.721-6007.034Zm0-10.174a1.951,1.951,0,0,0-1.52.566,2.964,2.964,0,0,0-.682,1.465,12.34,12.34,0,0,0-.168,2.192,13.535,13.535,0,0,0,.161,2.256,2.826,2.826,0,0,0,.68,1.471,1.99,1.99,0,0,0,1.528.56,1.977,1.977,0,0,0,1.525-.56,2.815,2.815,0,0,0,.683-1.471,13.5,13.5,0,0,0,.158-2.256,12.176,12.176,0,0,0-.167-2.192,2.987,2.987,0,0,0-.68-1.465A1.951,1.951,0,0,0,12046.721-6017.208Zm-30.781,6.489a2.255,2.255,0,0,1-1.6-.664l-.926-.922a1.032,1.032,0,0,1-.265-.993,1.028,1.028,0,0,1,.728-.728,1.006,1.006,0,0,1,.267-.036,1.033,1.033,0,0,1,.727.3l.923.922a.219.219,0,0,0,.15.059.221.221,0,0,0,.15-.059l2.467-2.464a1.015,1.015,0,0,1,.727-.3,1.046,1.046,0,0,1,.267.035,1.029,1.029,0,0,1,.728.728,1.033,1.033,0,0,1-.269,1l-2.466,2.463A2.242,2.242,0,0,1,12015.939-6010.718Zm49.275-2.619a2.4,2.4,0,0,1-1.751-.67,2.48,2.48,0,0,1-.68-1.843,2.444,2.444,0,0,1,.68-1.83,2.414,2.414,0,0,1,1.751-.664,2.421,2.421,0,0,1,1.754.664,2.449,2.449,0,0,1,.679,1.83,2.484,2.484,0,0,1-.679,1.843A2.4,2.4,0,0,1,12065.215-6013.337Zm0-3.9c-.669,0-1.009.468-1.009,1.392s.34,1.41,1.009,1.41a.892.892,0,0,0,.746-.344,1.755,1.755,0,0,0,.262-1.066C12066.223-6016.773,12065.884-6017.241,12065.215-6017.241Z" transform="translate(-11764 6021)" fill="#fff"/>
</svg>
