<svg xmlns="http://www.w3.org/2000/svg" width="46" height="36.8" viewBox="0 0 46 36.8">
  <path id="Icon_awesome-shipping-fast" data-name="Icon awesome-shipping-fast" d="M44.85,25.3H43.7V17.53a3.45,3.45,0,0,0-1.013-2.437l-7.18-7.18A3.45,3.45,0,0,0,33.07,6.9H29.9V3.45A3.451,3.451,0,0,0,26.45,0H8.05A3.451,3.451,0,0,0,4.6,3.45V6.9H.575A.577.577,0,0,0,0,7.475v1.15A.577.577,0,0,0,.575,9.2h19.55a.577.577,0,0,1,.575.575v1.15a.577.577,0,0,1-.575.575H2.875a.577.577,0,0,0-.575.575v1.15a.577.577,0,0,0,.575.575h14.95a.577.577,0,0,1,.575.575v1.15a.577.577,0,0,1-.575.575H.575A.577.577,0,0,0,0,16.675v1.15a.577.577,0,0,0,.575.575h14.95a.577.577,0,0,1,.575.575v1.15a.577.577,0,0,1-.575.575H4.6v9.2a6.9,6.9,0,0,0,13.8,0h9.2a6.9,6.9,0,0,0,13.8,0h3.45A1.153,1.153,0,0,0,46,28.75v-2.3A1.153,1.153,0,0,0,44.85,25.3ZM11.5,33.35a3.45,3.45,0,1,1,3.45-3.45A3.451,3.451,0,0,1,11.5,33.35Zm23,0a3.45,3.45,0,1,1,3.45-3.45A3.451,3.451,0,0,1,34.5,33.35ZM40.25,18.4H29.9V10.35h3.17l7.18,7.18Z" fill="#1568a8"/>
</svg>
