<svg xmlns="http://www.w3.org/2000/svg" width="10.389" height="17" viewBox="0 0 10.389 17">
  <g id="Group_392" data-name="Group 392" transform="translate(-10199.562 -4908)">
    <path id="Path_360" data-name="Path 360" d="M225.483,375.2l1.447,1.447-1.251,3.377a.941.941,0,0,1-.876.607,1.008,1.008,0,0,1-.321-.054.933.933,0,0,1-.554-1.2Z" transform="translate(9976.864 4544.333)" fill="#1568a8"/>
    <path id="Path_361" data-name="Path 361" d="M187.181,143.131l.858-1.644a2.739,2.739,0,0,1,.983-1.036c1.983-1.179,2.233-1.161,2.483-1.143l1.34.089c.411.018.7.125,2.073,2.144a.349.349,0,0,0,.232.143l1.644.25a.814.814,0,0,1-.25,1.608l-1.644-.25a1.976,1.976,0,0,1-1.322-.822c-.071-.107-.125-.2-.2-.286l-1.054,3.341,1.465,1.465a2.271,2.271,0,0,1,.5.786l1.126,3.287a.917.917,0,0,1-.572,1.179.907.907,0,0,1-.3.054.964.964,0,0,1-.893-.625l-1.126-3.287c-.018-.036-.036-.054-.054-.089l-2.609-2.626a1.506,1.506,0,0,1-.411-1.394l.572-2.537a1.563,1.563,0,0,1-.179.107.994.994,0,0,0-.375.393l-.858,1.644a.82.82,0,0,1-.715.429.961.961,0,0,1-.375-.089.821.821,0,0,1-.339-1.09Z" transform="translate(10012.469 4772.703)" fill="#1568a8"/>
    <path id="Path_362" data-name="Path 362" d="M300.418,13.735a1.8,1.8,0,1,1-1.989,1.6,1.8,1.8,0,0,1,1.989-1.6" transform="translate(9904.695 4894.275)" fill="#1568a8"/>
  </g>
</svg>
