<?xml version="1.0" standalone="no"?>
<!DOCTYPE svg PUBLIC "-//W3C//DTD SVG 20010904//EN"
 "http://www.w3.org/TR/2001/REC-SVG-20010904/DTD/svg10.dtd">
<svg version="1.0" xmlns="http://www.w3.org/2000/svg"
 width="131.000000pt" height="53.000000pt" viewBox="0 0 131.000000 53.000000"
 preserveAspectRatio="xMidYMid meet">
<g transform="translate(0.000000,53.000000) scale(0.100000,-0.100000)"
fill="#000000" stroke="none">
<path d="M76 428 c-22 -31 -23 -198 -1 -198 11 0 15 19 17 93 l3 92 44 -1 c54
-1 71 -21 71 -79 0 -50 -23 -75 -68 -75 -22 0 -32 -5 -32 -15 0 -19 67 -20 91
-2 38 29 51 100 27 152 -25 54 -123 75 -152 33z"/>
<path d="M280 435 c0 -8 5 -15 10 -15 6 0 10 7 10 15 0 8 -4 15 -10 15 -5 0
-10 -7 -10 -15z"/>
<path d="M530 340 c0 -91 3 -110 15 -110 12 0 15 19 15 110 0 91 -3 110 -15
110 -12 0 -15 -19 -15 -110z"/>
<path d="M606 443 c-3 -3 -6 -43 -6 -87 0 -107 13 -128 78 -124 38 2 49 8 61
29 22 39 7 95 -30 115 -34 17 -59 13 -59 -10 0 -9 6 -13 14 -10 28 11 56 -15
56 -51 0 -43 -29 -63 -66 -46 -23 10 -24 16 -24 95 0 78 -7 105 -24 89z"/>
<path d="M385 381 c-32 -14 -47 -37 -47 -76 0 -37 13 -59 45 -76 24 -14 67 -3
67 16 0 11 -7 14 -22 10 -39 -10 -63 18 -59 68 2 25 43 42 70 28 17 -10 21
-21 21 -66 0 -42 3 -55 15 -55 23 0 21 101 -2 128 -21 25 -60 35 -88 23z"/>
<path d="M814 379 c-23 -12 -44 -49 -44 -78 0 -10 9 -30 21 -45 27 -35 90 -37
113 -4 48 68 -19 162 -90 127z m72 -47 c24 -49 -19 -97 -65 -73 -24 13 -29 69
-9 89 19 19 61 10 74 -16z"/>
<path d="M280 305 c0 -43 4 -75 10 -75 6 0 10 32 10 75 0 43 -4 75 -10 75 -6
0 -10 -32 -10 -75z"/>
<path d="M930 378 c0 -4 9 -22 20 -40 19 -34 19 -34 0 -66 -23 -38 -24 -42 -7
-42 6 0 20 14 29 30 22 38 38 38 60 0 9 -17 22 -30 28 -30 14 0 13 11 -8 45
-18 29 -18 31 2 65 l20 35 -30 -27 c-39 -36 -57 -35 -88 5 -14 17 -26 29 -26
25z"/>
<path d="M1128 340 c21 -36 21 -36 2 -65 -22 -34 -25 -45 -10 -45 6 0 19 13
28 30 22 38 38 38 60 0 9 -16 23 -30 30 -30 17 0 15 10 -8 45 -19 29 -19 29 2
65 l21 35 -29 -27 c-17 -16 -36 -28 -44 -28 -8 0 -27 12 -44 28 l-29 27 21
-35z"/>
<path d="M92 178 c2 -16 24 -33 83 -62 73 -37 87 -41 177 -44 78 -4 110 0 165
17 82 25 173 76 173 96 0 34 -64 9 -74 -29 -5 -20 -17 -27 -78 -42 -144 -35
-378 -13 -378 36 0 20 -35 50 -58 50 -8 0 -12 -9 -10 -22z"/>
</g>
</svg>
