<svg xmlns="http://www.w3.org/2000/svg" width="212.523" height="215" viewBox="0 0 212.523 215">
  <g id="Group_334" data-name="Group 334" transform="translate(-5937.329 -6980)">
    <path id="Path_309" data-name="Path 309" d="M222.431,169.45h22.088a3.681,3.681,0,0,0,3.681-3.681V143.681A3.681,3.681,0,0,0,244.519,140H222.431a3.682,3.682,0,0,0-3.681,3.681v22.088a3.681,3.681,0,0,0,3.681,3.681Zm3.681-22.088h14.725v14.725H226.113Z" transform="translate(5772.424 6889.956)" fill="#a1a1a1"/>
    <path id="Path_310" data-name="Path 310" d="M91.1,49.75h10.806v7.167a3.575,3.575,0,0,0,1.055,2.534A3.612,3.612,0,0,0,105.51,60.5h18.01V228.916a3.575,3.575,0,0,0,1.055,2.534,3.612,3.612,0,0,0,2.547,1.049H264a3.612,3.612,0,0,0,2.547-1.049,3.574,3.574,0,0,0,1.055-2.534V60.5h14.408a3.612,3.612,0,0,0,2.547-1.049,3.575,3.575,0,0,0,1.055-2.534V49.75h10.806a3.612,3.612,0,0,0,2.547-1.049,3.575,3.575,0,0,0,1.055-2.534V31.833a3.575,3.575,0,0,0-1.055-2.534,3.612,3.612,0,0,0-2.547-1.049H285.615V21.083a3.575,3.575,0,0,0-1.055-2.534,3.612,3.612,0,0,0-2.547-1.049H105.51a3.593,3.593,0,0,0-3.6,3.583V28.25H91.1a3.593,3.593,0,0,0-3.6,3.583V46.167A3.575,3.575,0,0,0,88.555,48.7,3.612,3.612,0,0,0,91.1,49.75ZM292.819,35.417v7.167h-7.2V35.417ZM260.4,225.333H130.725V60.5H260.4ZM109.113,24.667h169.3V53.333h-169.3ZM94.7,35.417h7.2v7.167H94.7Z" transform="translate(5849.829 6962.5)" fill="#a1a1a1"/>
    <path id="Path_311" data-name="Path 311" d="M323.75,166.25h58.9v7.363h-58.9Z" transform="translate(5710.04 6874.609)" fill="#a1a1a1"/>
    <path id="Path_312" data-name="Path 312" d="M222.431,291.95h22.088a3.681,3.681,0,0,0,3.681-3.681V266.181a3.681,3.681,0,0,0-3.681-3.681H222.431a3.682,3.682,0,0,0-3.681,3.681v22.088a3.681,3.681,0,0,0,3.681,3.681Zm3.681-22.088h14.725v14.725H226.113Z" transform="translate(5772.424 6817.411)" fill="#a1a1a1"/>
    <path id="Path_313" data-name="Path 313" d="M323.75,288.75h58.9v7.363h-58.9Z" transform="translate(5710.04 6802.229)" fill="#a1a1a1"/>
    <path id="Path_314" data-name="Path 314" d="M222.431,414.45h22.088a3.681,3.681,0,0,0,3.681-3.681V388.681A3.681,3.681,0,0,0,244.519,385H222.431a3.682,3.682,0,0,0-3.681,3.681v22.088a3.681,3.681,0,0,0,3.681,3.681Zm3.681-22.088h14.725v14.725H226.113Z" transform="translate(5772.424 6744.867)" fill="#a1a1a1"/>
    <path id="Path_315" data-name="Path 315" d="M323.75,411.25h58.9v7.363h-58.9Z" transform="translate(5710.04 6729.848)" fill="#a1a1a1"/>
  </g>
</svg>
